<?xml version="1.0" standalone="no"?>
<!DOCTYPE svg PUBLIC "-//W3C//DTD SVG 20010904//EN"
 "http://www.w3.org/TR/2001/REC-SVG-20010904/DTD/svg10.dtd">
<svg version="1.0" xmlns="http://www.w3.org/2000/svg"
 width="256.000000pt" height="256.000000pt" viewBox="0 0 256.000000 256.000000"
 preserveAspectRatio="xMidYMid meet">

<g transform="translate(0.000000,256.000000) scale(0.100000,-0.100000)"
fill="#000000" stroke="none">
<path d="M1210 2551 c-46 -15 -85 -39 -116 -73 -54 -56 -69 -95 -69 -178 0
-63 4 -82 26 -120 l27 -45 -25 -35 c-48 -69 -47 -73 9 -38 l53 34 45 -23 c64
-33 125 -39 195 -19 102 30 185 140 185 246 0 85 -57 180 -136 226 -48 28
-146 41 -194 25z"/>
<path d="M765 2018 c-83 -29 -135 -102 -135 -188 0 -63 18 -106 61 -147 42
-39 77 -53 136 -53 94 0 173 64 194 160 32 142 -118 276 -256 228z m185 -228
c32 -17 12 -37 -55 -54 -80 -20 -125 -21 -125 -2 0 42 130 83 180 56z"/>
<path d="M1030 1916 c0 -20 22 -40 59 -56 17 -7 31 -17 31 -22 0 -6 -18 -45
-41 -89 -36 -69 -44 -78 -63 -73 -14 3 -27 -1 -35 -10 -10 -12 -9 -17 8 -25
11 -6 26 -11 33 -11 13 0 128 213 128 237 0 12 -89 63 -110 63 -5 0 -10 -6
-10 -14z"/>
<path d="M100 1771 c0 -15 6 -21 21 -21 25 0 22 33 -4 38 -12 2 -17 -3 -17
-17z"/>
<path d="M1085 1687 c-44 -79 -62 -89 -114 -62 -28 14 -34 14 -61 0 -46 -24
-128 -19 -189 11 -70 35 -150 31 -211 -11 -48 -33 -114 -121 -131 -174 -6 -20
-15 -40 -19 -44 -4 -5 -38 10 -75 33 l-68 41 6 -28 c3 -15 9 -56 13 -91 l7
-63 76 -45 c41 -24 85 -44 96 -44 37 0 63 27 69 72 10 65 28 128 38 134 5 4 9
-7 7 -22 -1 -16 -1 -321 -1 -678 l2 -648 34 -34 c39 -39 77 -44 127 -18 57 29
59 43 59 489 0 398 0 405 20 405 20 0 20 -7 20 -419 l0 -419 26 -31 c47 -57
137 -50 175 13 18 30 19 64 19 724 l0 694 76 -41 c41 -23 84 -41 95 -41 25 0
69 43 69 67 0 20 -112 303 -120 303 -3 0 -23 -33 -45 -73z"/>
<path d="M115 1683 c5 -26 9 -84 10 -128 1 -44 8 -122 15 -172 12 -84 15 -93
34 -93 48 1 50 9 32 131 -9 62 -21 116 -26 119 -5 3 -16 46 -23 95 -10 74 -16
90 -31 93 -17 4 -18 0 -11 -45z"/>
<path d="M1770 1581 c0 -22 -5 -41 -12 -44 -9 -3 -7 -7 5 -12 9 -4 25 -4 35 0
11 5 13 9 5 12 -8 3 -13 22 -13 44 0 21 -4 39 -10 39 -5 0 -10 -18 -10 -39z"/>
<path d="M1700 1561 c0 -5 -18 -12 -40 -16 -22 -4 -40 -11 -40 -16 0 -11 7
-11 47 0 21 6 35 5 42 -2 8 -8 11 -5 11 10 0 12 -4 25 -10 28 -5 3 -10 2 -10
-4z"/>
<path d="M1880 1540 c0 -18 7 -20 85 -20 78 0 85 2 85 20 0 18 -7 20 -85 20
-78 0 -85 -2 -85 -20z"/>
<path d="M1520 1210 l0 -290 335 0 335 0 0 290 0 290 -335 0 -335 0 0 -290z
m360 242 c0 -10 -12 -22 -30 -29 -39 -15 -61 -66 -53 -119 8 -56 20 -74 60
-90 33 -14 35 -18 31 -55 -2 -24 0 -38 7 -36 5 2 10 23 10 45 0 46 -1 46 67
42 39 -1 52 3 73 24 14 14 25 32 25 41 0 11 11 15 45 15 l45 0 0 -115 0 -115
-140 0 -140 0 0 -55 0 -55 -165 0 -165 0 0 135 0 135 91 0 c68 0 90 3 87 13
-3 8 -35 14 -94 17 l-89 4 89 6 c59 3 91 9 94 18 3 9 -19 12 -87 12 l-91 0 0
30 0 30 95 0 c84 0 95 2 96 18 0 11 5 7 13 -12 8 -16 11 -48 8 -72 -3 -29 -1
-44 7 -44 7 0 11 22 11 59 0 43 -5 65 -20 84 -11 14 -20 39 -20 56 l0 31 70 0
c60 0 70 -2 70 -18z m-20 -45 c0 -2 -10 -12 -22 -23 l-23 -19 19 23 c18 21 26
27 26 19z m20 -31 c0 -8 -6 -16 -14 -19 -8 -3 -16 -16 -19 -29 -3 -18 -5 -17
-6 8 -1 28 13 54 31 54 4 0 8 -6 8 -14z m-29 -105 c26 -36 18 -54 -12 -24 -12
12 -22 38 -25 64 -3 35 -2 39 5 18 5 -15 19 -41 32 -58z m102 19 l72 0 -25
-20 c-37 -28 -66 -32 -100 -15 -26 13 -30 21 -29 53 2 30 3 32 6 10 4 -28 6
-28 76 -28z m82 -40 c-10 -11 -30 -20 -44 -20 -24 0 -23 2 14 24 46 26 56 25
30 -4z"/>
<path d="M2009 1144 c-10 -12 -9 -18 3 -31 19 -18 38 -10 38 17 0 24 -25 33
-41 14z"/>
<path d="M2080 1144 c-11 -12 -10 -18 3 -32 16 -15 18 -15 34 0 13 14 14 20 3
32 -7 9 -16 16 -20 16 -4 0 -13 -7 -20 -16z"/>
<path d="M1570 1060 l0 -80 120 0 120 0 0 80 0 80 -120 0 -120 0 0 -80z"/>
<path d="M84 1454 c-4 -14 -2 -36 5 -50 14 -31 36 -32 27 -1 -3 12 -6 34 -6
50 0 34 -18 35 -26 1z"/>
<path d="M1188 1014 c-61 -67 -68 -74 -78 -74 -5 0 -10 -4 -10 -10 0 -23 27
-7 75 45 55 60 84 69 109 33 24 -34 20 -38 -34 -38 -43 0 -50 -3 -50 -20 0
-19 7 -20 133 -19 120 1 135 3 145 20 8 12 8 19 2 19 -5 0 -10 11 -10 25 0 23
-4 25 -40 25 -38 0 -40 -2 -40 -29 0 -30 -21 -54 -28 -33 -2 7 -8 12 -14 12
-6 0 -26 18 -45 40 -44 51 -71 52 -115 4z"/>
<path d="M2230 956 c0 -22 3 -23 48 -18 61 6 64 10 13 18 -22 4 -41 10 -41 15
0 5 -4 9 -10 9 -5 0 -10 -11 -10 -24z"/>
<path d="M1080 856 c0 -13 6 -24 13 -23 41 1 47 -3 47 -38 0 -31 3 -35 25 -35
l25 0 0 -375 0 -375 30 0 30 0 0 70 0 70 530 0 530 0 0 -70 0 -70 30 0 30 0 0
375 0 375 25 0 c23 0 25 4 25 40 0 38 2 40 30 40 23 0 30 4 30 20 0 20 -7 20
-700 20 l-700 0 0 -24z m1230 -371 l0 -275 -530 0 -530 0 0 275 0 275 530 0
530 0 0 -275z"/>
<path d="M1140 569 c0 -11 -9 -140 -21 -285 -19 -240 -19 -288 -4 -272 3 2 15
134 28 291 18 228 20 287 10 287 -7 0 -13 -9 -13 -21z"/>
</g>
</svg>
